<?xml version="1.0" standalone="no"?>
<!DOCTYPE svg PUBLIC "-//W3C//DTD SVG 20010904//EN"
 "http://www.w3.org/TR/2001/REC-SVG-20010904/DTD/svg10.dtd">
<svg version="1.0" 
    xmlns="http://www.w3.org/2000/svg" width="8858.000000pt" height="8858.000000pt" viewBox="0 0 8858.000000 8858.000000" preserveAspectRatio="xMidYMid meet">
    <circle class="cls-1" cx="4429" cy="4429" r="4355" fill="#ffffff"/>
    <g transform="translate(0.000000,8858.000000) scale(0.100000,-0.100000)" fill="#000000" stroke="none">
        <path d="M20262 45614 c-6546 -13671 -11901 -24859 -11898 -24861 4 -4 10579
-63 10582 -59 1 0 1062 2235 2359 4966 1297 2731 2361 4968 2364 4972 6 7
20411 -99 20418 -106 2 -2 -1346 -2235 -2997 -4961 -1650 -2727 -2999 -4960
-2996 -4962 2 -3 3262 -22 7243 -44 3981 -22 9196 -50 11588 -64 2393 -13
5016 -26 5830 -29 814 -2 4719 -22 8677 -42 3959 -21 7201 -34 7205 -31 7 8
59 9514 52 9521 -2 2 -4535 27 -10074 55 -7680 40 -10072 55 -10078 64 -5 7
-376 802 -826 1767 l-818 1754 133 221 c73 121 5067 8372 11098 18335 l10964
18115 -66 3 c-98 3 -38112 201 -39912 207 -1687 5 -4879 21 -6135 30 l-810 6
-11903 -24857z m34083 16124 c4741 -11 8621 -22 8623 -23 5 -4 -10836 -17909
-10845 -17912 -7 -2 -8364 17918 -8371 17952 -3 15 84 16 985 10 543 -3 4867
-15 9608 -27z m-14335 -14216 c2240 -4918 4070 -8945 4066 -8949 -5 -6 -16677
76 -16684 82 -2 1 1892 3991 4209 8866 2316 4875 4229 8902 4251 8949 l40 85
22 -45 c13 -25 1856 -4069 4096 -8988z"/>
    </g>

</svg>